<svg xmlns="http://www.w3.org/2000/svg" width="22" height="18" viewBox="0 0 22 18" fill="none">
<path fill-rule="evenodd" clip-rule="evenodd" d="M6.83007 4.39521C6.60238 3.82505 6.88025 3.17906 7.45076 2.9523L11.3299 1.41057C11.9003 1.18387 12.5474 1.46228 12.775 2.03237L13.1079 2.86596C13.4914 3.82644 14.8645 3.79052 15.1949 2.81143L15.8634 0.830081C16.0595 0.248877 16.6903 -0.0629251 17.2725 0.133636L21.2305 1.47047C21.8125 1.66708 22.1254 2.29762 21.9293 2.87889L17.8952 14.8346C17.8941 14.8377 17.8907 14.8394 17.8876 14.8384L17.8834 14.8385L11.9504 17.1965L11.9473 17.1992C11.9458 17.2022 11.9422 17.2032 11.9393 17.2017L0.769839 11.2886C0.226818 11.0011 0.0194747 10.3286 0.306525 9.78659L2.25897 6.10069C2.54602 5.55865 3.219 5.35221 3.76202 5.63967L5.60864 6.61733C6.52336 7.10159 7.54503 6.18574 7.16151 5.22526L6.83007 4.39521Z" fill="#FFDD22"/>
</svg>