<svg xmlns="http://www.w3.org/2000/svg" width="64" height="64" viewBox="0 0 64 64" fill="none">
<g clip-path="url(#clip0_1_211)">
<g clip-path="url(#clip1_1_211)">
<g clip-path="url(#clip2_1_211)">
<path d="M58 0H6C2.68629 0 0 2.68629 0 6V58C0 61.3137 2.68629 64 6 64H58C61.3137 64 64 61.3137 64 58V6C64 2.68629 61.3137 0 58 0Z" fill="#558AF0"/>
<path d="M37.92 20.1333C35.5067 20.1333 33.3467 21.3066 32 23.1066C30.6533 21.3066 28.4933 20.1333 26.08 20.1333C21.9867 20.1333 18.6667 23.4666 18.6667 27.5866C18.6667 29.1733 18.92 30.64 19.36 32C21.4667 38.6666 27.96 42.6533 31.1733 43.7466C31.6267 43.9066 32.3733 43.9066 32.8267 43.7466C36.04 42.6533 42.5333 38.6666 44.64 32C45.08 30.64 45.3333 29.1733 45.3333 27.5866C45.3333 23.4666 42.0133 20.1333 37.92 20.1333Z" fill="white"/>
</g>
</g>
</g>
<defs>
<clipPath id="clip0_1_211">
<rect width="64" height="64" fill="white"/>
</clipPath>
<clipPath id="clip1_1_211">
<rect width="64" height="64" fill="white"/>
</clipPath>
<clipPath id="clip2_1_211">
<rect width="64" height="64" fill="white"/>
</clipPath>
</defs>
</svg>