<svg xmlns="http://www.w3.org/2000/svg" width="64" height="64" viewBox="0 0 64 64" fill="none">
<g clip-path="url(#clip0_1_224)">
<g clip-path="url(#clip1_1_224)">
<g clip-path="url(#clip2_1_224)">
<path d="M58 0H6C2.68629 0 0 2.68629 0 6V58C0 61.3137 2.68629 64 6 64H58C61.3137 64 64 61.3137 64 58V6C64 2.68629 61.3137 0 58 0Z" fill="#558AF0"/>
<path d="M46.95 22.3358L33.2 14.8124C32.8326 14.6094 32.4197 14.5029 32 14.5029C31.5803 14.5029 31.1674 14.6094 30.8 14.8124L17.05 22.339C16.6573 22.5538 16.3295 22.8702 16.1009 23.2549C15.8722 23.6397 15.751 24.0789 15.75 24.5265V39.4702C15.751 39.9178 15.8722 40.357 16.1009 40.7417C16.3295 41.1265 16.6573 41.4429 17.05 41.6577L30.8 49.1843C31.1674 49.3873 31.5803 49.4938 32 49.4938C32.4197 49.4938 32.8326 49.3873 33.2 49.1843L46.95 41.6577C47.3427 41.4429 47.6705 41.1265 47.8991 40.7417C48.1278 40.357 48.249 39.9178 48.25 39.4702V24.528C48.2498 24.0796 48.129 23.6395 47.9003 23.2538C47.6716 22.8681 47.3434 22.5511 46.95 22.3358ZM32 38.2499C30.7639 38.2499 29.5555 37.8834 28.5277 37.1966C27.4999 36.5098 26.6988 35.5337 26.2258 34.3917C25.7527 33.2496 25.6289 31.993 25.8701 30.7806C26.1112 29.5682 26.7065 28.4546 27.5806 27.5805C28.4547 26.7064 29.5683 26.1112 30.7807 25.87C31.9931 25.6288 33.2497 25.7526 34.3918 26.2257C35.5338 26.6987 36.5099 27.4998 37.1967 28.5276C37.8834 29.5554 38.25 30.7638 38.25 31.9999C38.25 33.6575 37.5915 35.2472 36.4194 36.4193C35.2473 37.5914 33.6576 38.2499 32 38.2499Z" fill="white"/>
</g>
</g>
</g>
<defs>
<clipPath id="clip0_1_224">
<rect width="64" height="64" fill="white"/>
</clipPath>
<clipPath id="clip1_1_224">
<rect width="64" height="64" fill="white"/>
</clipPath>
<clipPath id="clip2_1_224">
<rect width="64" height="64" fill="white"/>
</clipPath>
</defs>
</svg>