<svg xmlns="http://www.w3.org/2000/svg" width="64" height="64" viewBox="0 0 64 64" fill="none">
<g clip-path="url(#clip0_1_234)">
<g clip-path="url(#clip1_1_234)">
<path d="M58 0H6C2.68629 0 0 2.68629 0 6V58C0 61.3137 2.68629 64 6 64H58C61.3137 64 64 61.3137 64 58V6C64 2.68629 61.3137 0 58 0Z" fill="#558AF0"/>
<path d="M49.4998 36.9998C49.4979 40.1148 48.333 43.1169 46.2333 45.4179C44.1335 47.719 41.2503 49.1531 38.1485 49.4393C35.0466 49.7256 31.9496 48.8434 29.4642 46.9655C26.9789 45.0876 25.2842 42.3494 24.7123 39.2873C26.7074 39.6584 28.7628 39.5381 30.701 38.937C32.6392 38.3358 34.4019 37.2718 35.8369 35.8369C37.2718 34.4019 38.3358 32.6392 38.937 30.701C39.5381 28.7628 39.6584 26.7074 39.2873 24.7123C42.1561 25.2463 44.7477 26.7672 46.613 29.0114C48.4782 31.2556 49.4995 34.0817 49.4998 36.9998ZM36.9998 24.4998C37.7672 24.5005 38.5329 24.5716 39.2873 24.7123C38.8709 22.4739 37.8511 20.3917 36.3379 18.6904C34.8247 16.9892 32.8756 15.7336 30.701 15.0591C28.5264 14.3846 26.2089 14.3169 23.9986 14.8633C21.7883 15.4096 19.7692 16.5493 18.1592 18.1592C16.5493 19.7692 15.4096 21.7883 14.8633 23.9986C14.3169 26.2089 14.3846 28.5264 15.0591 30.701C15.7336 32.8756 16.9892 34.8247 18.6904 36.3379C20.3917 37.8511 22.4739 38.8709 24.7123 39.2873C24.3764 37.4831 24.442 35.6271 24.9043 33.851C25.3666 32.075 26.2142 30.4226 27.3871 29.0111C28.56 27.5996 30.0293 26.4636 31.6906 25.684C33.3519 24.9043 35.1646 24.5 36.9998 24.4998Z" fill="white"/>
</g>
</g>
<defs>
<clipPath id="clip0_1_234">
<rect width="64" height="64" fill="white"/>
</clipPath>
<clipPath id="clip1_1_234">
<rect width="64" height="64" fill="white"/>
</clipPath>
</defs>
</svg>