<svg xmlns="http://www.w3.org/2000/svg" width="11" height="11" viewBox="0 0 11 11" fill="none">
<path fill-rule="evenodd" clip-rule="evenodd" d="M8.09146 2.04616C8.30781 1.88682 8.61453 1.94113 8.76341 2.16489L9.56242 3.3649C9.70204 3.57404 9.65225 3.85509 9.4504 4.00395L8.71992 4.54132C8.40104 4.7765 8.49834 5.27649 8.88265 5.37561L9.85187 5.62543C10.1063 5.69098 10.2581 5.95259 10.1882 6.20583L9.78119 7.6857C9.7129 7.933 9.45871 8.07998 9.20961 8.01564L8.1449 7.74137C7.77918 7.64696 7.45789 7.99862 7.58403 8.35364L7.98268 9.47514C8.06634 9.71058 7.95133 9.96999 7.72069 10.0661L6.36122 10.6321C6.1123 10.7362 5.82598 10.6092 5.73592 10.3549L4.92995 8.08694C4.82374 7.78911 4.46062 7.67776 4.20635 7.86492L2.26207 9.29702C2.04572 9.45636 1.739 9.40206 1.59012 9.1783L0.791123 7.97829C0.65154 7.76907 0.701277 7.48809 0.903132 7.33923L1.57969 6.84136C1.89853 6.60626 1.80123 6.10627 1.41692 6.00716L0.924802 5.88029C0.669469 5.81446 0.518493 5.55321 0.587649 5.29952L0.995486 3.82002C1.06377 3.57272 1.31792 3.42582 1.56624 3.48971L2.61404 3.75992C2.97897 3.85389 3.30106 3.50268 3.17493 3.14767L2.78699 2.05745C2.70329 1.82209 2.81834 1.5626 3.04898 1.46651L4.40846 0.900464C4.65738 0.79645 4.9437 0.923387 5.03376 1.17769L5.69988 3.05271C5.80609 3.35053 6.16922 3.4619 6.42353 3.27466L8.09146 2.04616Z" fill="#3771E0"/>
</svg>