<svg xmlns="http://www.w3.org/2000/svg" width="32" height="33" viewBox="0 0 32 33" fill="none">
<g clip-path="url(#clip0_1_32)">
<path d="M16.0003 3.16669C23.3643 3.16669 29.3337 9.13602 29.3337 16.5C29.3337 23.864 23.3643 29.8334 16.0003 29.8334C8.63633 29.8334 2.66699 23.864 2.66699 16.5C2.66699 9.13602 8.63633 3.16669 16.0003 3.16669ZM11.7643 20.9574C11.2377 20.3214 10.583 20.0947 9.79233 20.2787L9.59232 20.3334L8.80566 21.688C8.6573 21.9296 8.60816 22.2191 8.66853 22.4961C8.7289 22.773 8.8941 23.0159 9.12953 23.1737C9.36496 23.3316 9.65234 23.3923 9.93148 23.343C10.2106 23.2937 10.4599 23.1383 10.627 22.9094L10.7097 22.7854L11.763 20.9574H11.7643ZM17.6137 12.0467C16.963 12.5854 16.307 14.176 17.227 15.7627L21.2803 22.784C21.4207 23.0226 21.6459 23.1993 21.911 23.279C22.176 23.3587 22.4614 23.3354 22.71 23.2138C22.9586 23.0921 23.1522 22.8812 23.252 22.623C23.3518 22.3649 23.3505 22.0786 23.2483 21.8214L23.183 21.688L22.1137 19.832H23.7003C23.8445 19.8324 23.9873 19.8042 24.1205 19.7492C24.2537 19.6941 24.3747 19.6133 24.4766 19.5113C24.5784 19.4093 24.6591 19.2882 24.714 19.1549C24.7689 19.0216 24.7969 18.8788 24.7963 18.7347C24.797 18.4673 24.6997 18.209 24.5228 18.0085C24.3459 17.808 24.1017 17.6793 23.8363 17.6467L23.699 17.6387H20.8457L17.9203 12.576L17.6137 12.048V12.0467ZM17.9843 7.98802C17.7541 7.85576 17.4837 7.81126 17.2232 7.86272C16.9627 7.91418 16.7297 8.05814 16.567 8.26802L16.4843 8.39069L15.995 9.23469L15.5163 8.39069C15.376 8.15215 15.1507 7.97538 14.8857 7.89571C14.6206 7.81604 14.3353 7.83934 14.0867 7.96096C13.8381 8.08257 13.6445 8.29353 13.5447 8.55168C13.4449 8.80982 13.4462 9.09613 13.5483 9.35335L13.6137 9.48669L14.731 11.4294L11.151 17.6334H8.35499C8.21096 17.633 8.06829 17.6611 7.93515 17.7161C7.80202 17.771 7.68106 17.8517 7.57922 17.9536C7.47738 18.0554 7.39666 18.1764 7.3417 18.3095C7.28675 18.4426 7.25864 18.5853 7.25899 18.7294C7.25899 19.2907 7.67499 19.7507 8.21766 19.8187L8.35499 19.8267H18.3283C18.7817 18.9734 18.2483 17.7614 17.2483 17.6427L17.087 17.6334H13.683L18.387 9.48669C18.5323 9.23455 18.5715 8.93501 18.496 8.65396C18.4205 8.37291 18.2365 8.13336 17.9843 7.98802Z" fill="white"/>
</g>
<defs>
<clipPath id="clip0_1_32">
<rect width="32" height="32" fill="white" transform="translate(0 0.5)"/>
</clipPath>
</defs>
</svg>