<svg xmlns="http://www.w3.org/2000/svg" width="28" height="29" viewBox="0 0 28 29" fill="none">
<g clip-path="url(#clip0_1_42)">
<path d="M5.54316 1.21167L20.8545 10.0153L17.5727 13.2972L5.54316 1.21167ZM2.37099 0.5L16.4258 14.5L2.37216 28.5C1.65699 28.1838 1.16699 27.4803 1.16699 26.6625C1.16699 26.6357 1.16699 26.6088 1.16816 26.5832V26.5867V2.4145C1.16699 2.39233 1.16699 2.3655 1.16699 2.33867C1.16699 1.52083 1.65699 0.817333 2.35933 0.505833L2.37216 0.501167L2.37099 0.5ZM25.6133 12.8597C26.0963 13.2178 26.4055 13.7872 26.4055 14.4277C26.4055 14.4533 26.4055 14.4778 26.4043 14.5035V14.5C26.409 14.5502 26.4125 14.6097 26.4125 14.6692C26.4125 15.2712 26.1208 15.8055 25.6705 16.1368L25.6658 16.1403L22.384 17.9988L18.8303 14.5L22.3852 10.9452L25.6133 12.8597ZM5.54316 27.7883L17.5738 15.7028L20.8557 18.9847L5.54316 27.7883Z" fill="white"/>
</g>
<defs>
<clipPath id="clip0_1_42">
<rect width="28" height="28" fill="white" transform="translate(0 0.5)"/>
</clipPath>
</defs>
</svg>