<svg xmlns="http://www.w3.org/2000/svg" width="56" height="56" viewBox="0 0 57 56" fill="none">
<path d="M28.5 52.5C42.031 52.5 53 41.531 53 28C53 14.469 42.031 3.5 28.5 3.5C14.969 3.5 4 14.469 4 28C4 41.531 14.969 52.5 28.5 52.5Z" fill="url(#paint0_linear_1_349)"/>
<path d="M32.7819 15.1446C33.3115 14.2203 32.9949 13.0397 32.0749 12.5077C31.1549 11.9757 29.9798 12.2938 29.4503 13.2181L28.5268 14.8302L27.6031 13.2181C27.0736 12.2938 25.8985 11.9757 24.9785 12.5077C24.0585 13.0397 23.7419 14.2203 24.2715 15.1446L26.309 18.7012L19.8641 29.9511H14.672C13.6105 29.9511 12.75 30.8156 12.75 31.882C12.75 32.9485 13.6105 33.813 14.672 33.813H32.7567C32.9153 33.3944 33.0822 32.6762 32.9046 32.0161C32.6377 31.0238 31.65 29.9511 29.9949 29.9511H24.2995L32.7819 15.1446Z" fill="white"/>
<path d="M20.8641 35.9485C20.5362 35.5826 19.8015 34.9979 19.1572 34.8056C18.1749 34.5121 17.4302 34.6962 17.0544 34.8565L15.6227 37.3557C15.0932 38.2799 15.4098 39.4604 16.3298 39.9924C17.2498 40.5244 18.4248 40.2065 18.9544 39.2821L20.8641 35.9485Z" fill="white"/>
<path d="M39.402 33.8127H42.3284C43.3899 33.8127 44.2504 32.9482 44.2504 31.8818C44.2504 30.8153 43.3899 29.9508 42.3284 29.9508H37.1897L31.401 19.8467C30.9711 20.2572 30.1466 21.306 30.022 22.4951C29.8619 24.0238 30.102 25.3111 30.8228 26.5716C33.2461 30.8096 35.6731 35.0456 38.0999 39.2817C38.6294 40.206 39.8044 40.524 40.7245 39.992C41.6445 39.46 41.9611 38.2794 41.4315 37.3553L39.402 33.8127Z" fill="white"/>
<defs>
<linearGradient id="paint0_linear_1_349" x1="28.5" y1="3.5" x2="28.5" y2="52.5" gradientUnits="userSpaceOnUse">
<stop stop-color="#2AC9FA"/>
<stop offset="1" stop-color="#1F65EB"/>
</linearGradient>
</defs>
</svg>