<svg xmlns="http://www.w3.org/2000/svg" width="56" height="56" viewBox="0 0 56 56" fill="none">
<path d="M29.7504 25.375L37.1004 17.5L8.57539 2.1C8.40039 1.925 8.05039 1.925 7.52539 1.75L29.7504 25.375Z" fill="#00F076"/>
<path d="M40.2504 36.75L50.5754 31.15C51.8004 30.45 52.5004 29.4 52.5004 28C52.5004 26.6 51.8004 25.375 50.5754 24.85L40.2504 19.25L32.0254 28L40.2504 36.75Z" fill="#FFC900"/>
<path d="M4.2 3.3252C3.675 3.8502 3.5 4.5502 3.5 5.2502V50.7502C3.5 51.4502 3.675 52.1502 4.2 52.8502L27.3 28.0002L4.2 3.3252Z" fill="#00D6FF"/>
<path d="M29.7504 30.625L7.52539 54.25C7.87539 54.25 8.22539 54.075 8.57539 53.9L37.1004 38.5L29.7504 30.625Z" fill="#FF3A44"/>
</svg>