<svg xmlns="http://www.w3.org/2000/svg" width="24" height="24" viewBox="0 0 24 24" fill="none">
<path d="M5.74035 16C5.85035 15.51 5.65035 14.81 5.30035 14.46L2.87035 12.03C2.11035 11.27 1.81035 10.46 2.03035 9.76C2.26035 9.06 2.97035 8.58 4.03035 8.4L7.15035 7.88C7.60035 7.8 8.15035 7.4 8.36035 6.99L10.0803 3.54C10.5803 2.55 11.2603 2 12.0003 2C12.7403 2 13.4203 2.55 13.9203 3.54L15.6403 6.99C15.7703 7.25 16.0403 7.5 16.3303 7.67L5.56035 18.44C5.42035 18.58 5.18035 18.45 5.22035 18.25L5.74035 16Z" fill="#DDDDDD"/>
<path d="M18.7 14.4599C18.34 14.8199 18.14 15.5099 18.26 15.9999L18.95 19.0099C19.24 20.2599 19.06 21.1999 18.44 21.6499C18.19 21.8299 17.89 21.9199 17.54 21.9199C17.03 21.9199 16.43 21.7299 15.77 21.3399L12.84 19.5999C12.38 19.3299 11.62 19.3299 11.16 19.5999L8.22999 21.3399C7.11999 21.9899 6.16999 22.0999 5.55999 21.6499C5.32999 21.4799 5.15999 21.2499 5.04999 20.9499L17.21 8.7899C17.67 8.3299 18.32 8.1199 18.95 8.2299L19.96 8.3999C21.02 8.5799 21.73 9.0599 21.96 9.7599C22.18 10.4599 21.88 11.2699 21.12 12.0299L18.7 14.4599Z" fill="#DDDDDD"/>
</svg>