<svg xmlns="http://www.w3.org/2000/svg" width="25" height="25" viewBox="0 0 25 25" fill="none">
<path d="M6.67672 16.0493C6.78672 15.5593 6.58672 14.8593 6.23672 14.5093L3.80672 12.0793C3.04672 11.3193 2.74672 10.5093 2.96672 9.80932C3.19672 9.10932 3.90672 8.62932 4.96672 8.44932L8.08672 7.92932C8.53672 7.84932 9.08672 7.44932 9.29672 7.03932L11.0167 3.58932C11.5167 2.59932 12.1967 2.04932 12.9367 2.04932C13.6767 2.04932 14.3567 2.59932 14.8567 3.58932L16.5767 7.03932C16.7067 7.29932 16.9767 7.54932 17.2667 7.71932L6.49672 18.4893C6.35672 18.6293 6.11672 18.4993 6.15672 18.2993L6.67672 16.0493Z" fill="#FFD600"/>
<path d="M19.6363 14.5092C19.2763 14.8692 19.0763 15.5592 19.1963 16.0492L19.8863 19.0592C20.1763 20.3092 19.9963 21.2492 19.3763 21.6992C19.1263 21.8792 18.8263 21.9692 18.4763 21.9692C17.9663 21.9692 17.3663 21.7792 16.7063 21.3892L13.7763 19.6492C13.3163 19.3792 12.5563 19.3792 12.0963 19.6492L9.16633 21.3892C8.05633 22.0392 7.10633 22.1492 6.49633 21.6992C6.26633 21.5292 6.09633 21.2992 5.98633 20.9992L18.1463 8.83921C18.6063 8.37921 19.2563 8.16921 19.8863 8.27921L20.8963 8.44921C21.9563 8.62921 22.6663 9.10921 22.8963 9.80921C23.1163 10.5092 22.8163 11.3192 22.0563 12.0792L19.6363 14.5092Z" fill="#FFD600"/>
</svg>