<svg xmlns="http://www.w3.org/2000/svg" width="435" height="345" viewBox="0 0 435 345" fill="none">
<path d="M14.9046 1C-7.12523 48.2173 -5.09444 68.7097 36.382 89.5144C62.5252 100.188 74.8422 105.608 84.8317 114.549C122.378 136.336 140.862 148.012 153.759 164.618C195.738 204.849 223.127 219.687 276.63 233.015C294.549 237.579 303.491 240.511 318.586 245.979C357.711 252.275 385.287 251.623 396.504 278.613L400 326" stroke="black" stroke-width="2" stroke-dasharray="4 4"/>
<path d="M164.186 179.86L116.838 167.419C110.85 165.846 109.517 157.748 114.877 155.507L134.658 147.236C136.045 146.657 137.109 145.557 137.642 144.151L145.257 124.099C147.319 118.666 155.453 119.732 157.222 125.668L171.206 172.602C172.566 177.165 168.789 181.07 164.185 179.861L164.186 179.86Z" fill="url(#paint0_linear_1_147)"/>
<path d="M67.0745 80.8499L50.1032 68.4146C47.9568 66.8419 48.7346 63.3975 51.2473 63.3479L60.5197 63.1638C61.1698 63.1512 61.7747 62.8796 62.2163 62.4022L68.5191 55.5945C70.2266 53.7496 73.3156 55.4581 73.063 58.1077L71.0658 79.0582C70.8719 81.0951 68.7244 82.0591 67.074 80.8501L67.0745 80.8499Z" fill="url(#paint1_linear_1_147)"/>
<path d="M406.935 334.956L375.421 309.743C371.435 306.554 373.226 300.019 378.055 300.13L395.877 300.537C397.126 300.566 398.311 300.095 399.201 299.217L411.892 286.69C415.33 283.296 421.114 286.822 420.4 291.877L414.754 331.851C414.206 335.737 409.999 337.408 406.934 334.957L406.935 334.956Z" fill="url(#paint2_linear_1_147)"/>
<path d="M370.452 223.062L351.062 208.118C348.609 206.228 349.57 202.238 352.475 202.249L363.194 202.289C363.946 202.292 364.65 201.992 365.169 201.449L372.575 193.694C374.581 191.593 378.12 193.667 377.781 196.745L375.097 221.085C374.836 223.451 372.337 224.515 370.451 223.062L370.452 223.062Z" fill="url(#paint3_linear_1_147)"/>
<path d="M329.494 325.001L310.104 310.057C307.651 308.167 308.612 304.178 311.517 304.189L322.236 304.228C322.988 304.231 323.692 303.932 324.211 303.388L331.617 295.634C333.623 293.532 337.162 295.606 336.823 298.685L334.139 323.024C333.878 325.391 331.379 326.454 329.493 325.002L329.494 325.001Z" fill="url(#paint4_linear_1_147)"/>
<defs>
<linearGradient id="paint0_linear_1_147" x1="169.933" y1="178.395" x2="130.336" y2="140.095" gradientUnits="userSpaceOnUse">
<stop stop-color="#E4318D"/>
<stop offset="1" stop-color="#5D5FEF"/>
</linearGradient>
<linearGradient id="paint1_linear_1_147" x1="69.6164" y1="81.1712" x2="59.946" y2="59.6291" gradientUnits="userSpaceOnUse">
<stop stop-color="#5D5FEF"/>
<stop offset="1" stop-color="#E4318D"/>
</linearGradient>
<linearGradient id="paint2_linear_1_147" x1="411.789" y1="335.78" x2="395.082" y2="293.718" gradientUnits="userSpaceOnUse">
<stop stop-color="#E4318D"/>
<stop offset="1" stop-color="#5D5FEF"/>
</linearGradient>
<linearGradient id="paint3_linear_1_147" x1="373.384" y1="223.506" x2="362.595" y2="198.157" gradientUnits="userSpaceOnUse">
<stop stop-color="#5D5FEF"/>
<stop offset="1" stop-color="#E4318D"/>
</linearGradient>
<linearGradient id="paint4_linear_1_147" x1="332.426" y1="325.445" x2="321.637" y2="300.097" gradientUnits="userSpaceOnUse">
<stop stop-color="#5D5FEF"/>
<stop offset="1" stop-color="#E4318D"/>
</linearGradient>
</defs>
</svg>