<svg xmlns="http://www.w3.org/2000/svg" width="32" height="32" viewBox="0 0 32 32" fill="none">
<g clip-path="url(#clip0_1_664)">
<path d="M16.0003 2.66602C23.3643 2.66602 29.3337 8.63535 29.3337 15.9993C29.3337 23.3633 23.3643 29.3327 16.0003 29.3327C8.63633 29.3327 2.66699 23.3633 2.66699 15.9993C2.66699 8.63535 8.63633 2.66602 16.0003 2.66602ZM11.7643 20.4567C11.2377 19.8207 10.583 19.594 9.79233 19.778L9.59232 19.8327L8.80566 21.1873C8.6573 21.4289 8.60816 21.7185 8.66853 21.9954C8.7289 22.2724 8.8941 22.5152 9.12953 22.6731C9.36496 22.8309 9.65234 22.8916 9.93148 22.8423C10.2106 22.793 10.4599 22.6376 10.627 22.4087L10.7097 22.2847L11.763 20.4567H11.7643ZM17.6137 11.546C16.963 12.0847 16.307 13.6753 17.227 15.262L21.2803 22.2833C21.4207 22.5219 21.6459 22.6987 21.911 22.7783C22.176 22.858 22.4614 22.8347 22.71 22.7131C22.9586 22.5915 23.1522 22.3805 23.252 22.1224C23.3518 21.8642 23.3505 21.5779 23.2483 21.3207L23.183 21.1873L22.1137 19.3313H23.7003C23.8445 19.3317 23.9873 19.3035 24.1205 19.2485C24.2537 19.1935 24.3747 19.1126 24.4766 19.0107C24.5784 18.9087 24.6591 18.7875 24.714 18.6543C24.7689 18.521 24.7969 18.3782 24.7963 18.234C24.797 17.9666 24.6997 17.7083 24.5228 17.5078C24.3459 17.3073 24.1017 17.1786 23.8363 17.146L23.699 17.138H20.8457L17.9203 12.0753L17.6137 11.5473V11.546ZM17.9843 7.48735C17.7541 7.35509 17.4837 7.31059 17.2232 7.36205C16.9627 7.41351 16.7297 7.55747 16.567 7.76735L16.4843 7.89002L15.995 8.73402L15.5163 7.89002C15.376 7.65148 15.1507 7.47471 14.8857 7.39504C14.6206 7.31537 14.3353 7.33867 14.0867 7.46028C13.8381 7.5819 13.6445 7.79286 13.5447 8.05101C13.4449 8.30915 13.4462 8.59545 13.5483 8.85268L13.6137 8.98601L14.731 10.9287L11.151 17.1327H8.35499C8.21096 17.1323 8.06829 17.1604 7.93515 17.2154C7.80202 17.2703 7.68106 17.3511 7.57922 17.4529C7.47738 17.5548 7.39666 17.6757 7.3417 17.8088C7.28675 17.942 7.25864 18.0847 7.25899 18.2287C7.25899 18.79 7.67499 19.25 8.21766 19.318L8.35499 19.326H18.3283C18.7817 18.4727 18.2483 17.2607 17.2483 17.142L17.087 17.1327H13.683L18.387 8.98601C18.5323 8.73388 18.5715 8.43434 18.496 8.15329C18.4205 7.87224 18.2365 7.63269 17.9843 7.48735Z" fill="black"/>
</g>
<defs>
<clipPath id="clip0_1_664">
<rect width="32" height="32" fill="white"/>
</clipPath>
</defs>
</svg>