<svg xmlns="http://www.w3.org/2000/svg" width="32" height="32" viewBox="0 0 32 32" fill="none">
<rect width="32" height="32" rx="8" fill="#2D2D2D"/>
<g clip-path="url(#clip0_1_615)">
<rect x="5.3335" y="4" width="21.3333" height="24" rx="8" fill="#2D2D2D"/>
<path d="M16.0046 10.6098C12.976 10.6098 10.5332 13.0144 10.5332 15.9957C10.5332 18.9769 12.976 21.3816 16.0046 21.3816C19.0332 21.3816 21.476 18.9769 21.476 15.9957C21.476 13.0144 19.0332 10.6098 16.0046 10.6098ZM16.0046 19.4973C14.0474 19.4973 12.4474 17.9269 12.4474 15.9957C12.4474 14.0644 14.0427 12.4941 16.0046 12.4941C17.9665 12.4941 19.5617 14.0644 19.5617 15.9957C19.5617 17.9269 17.9617 19.4973 16.0046 19.4973ZM22.976 10.3895C22.976 11.0879 22.4046 11.6457 21.6998 11.6457C20.9903 11.6457 20.4236 11.0832 20.4236 10.3895C20.4236 9.6957 20.9951 9.1332 21.6998 9.1332C22.4046 9.1332 22.976 9.6957 22.976 10.3895ZM26.5998 11.6645C26.5189 9.98164 26.1284 8.49101 24.876 7.26289C23.6284 6.03477 22.1141 5.65039 20.4046 5.56602C18.6427 5.46758 13.3617 5.46758 11.5998 5.56602C9.89506 5.6457 8.38078 6.03008 7.1284 7.2582C5.87602 8.48633 5.4903 9.97695 5.40459 11.6598C5.30459 13.3941 5.30459 18.5926 5.40459 20.3269C5.48554 22.0098 5.87602 23.5004 7.1284 24.7285C8.38078 25.9566 9.8903 26.341 11.5998 26.4254C13.3617 26.5238 18.6427 26.5238 20.4046 26.4254C22.1141 26.3457 23.6284 25.9613 24.876 24.7285C26.1236 23.5004 26.5141 22.0098 26.5998 20.3269C26.6998 18.5926 26.6998 13.3988 26.5998 11.6645ZM24.3236 22.1879C23.9522 23.1066 23.2331 23.8144 22.2951 24.1848C20.8903 24.7332 17.557 24.6066 16.0046 24.6066C14.4522 24.6066 11.1141 24.7285 9.71411 24.1848C8.78078 23.8191 8.06173 23.1113 7.68554 22.1879C7.1284 20.8051 7.25697 17.5238 7.25697 15.9957C7.25697 14.4676 7.13316 11.1816 7.68554 9.80351C8.05697 8.88476 8.77602 8.17695 9.71411 7.80664C11.1189 7.2582 14.4522 7.38476 16.0046 7.38476C17.557 7.38476 20.8951 7.26289 22.2951 7.80664C23.2284 8.17226 23.9474 8.88008 24.3236 9.80351C24.8808 11.1863 24.7522 14.4676 24.7522 15.9957C24.7522 17.5238 24.8808 20.8098 24.3236 22.1879Z" fill="white"/>
</g>
<defs>
<clipPath id="clip0_1_615">
<rect x="5.3335" y="4" width="21.3333" height="24" rx="8" fill="white"/>
</clipPath>
</defs>
</svg>