<svg xmlns="http://www.w3.org/2000/svg" width="32" height="32" viewBox="0 0 32 32" fill="none">
<rect width="32" height="32" rx="8" fill="#2D2D2D"/>
<path d="M10.1771 25.334V11.84H5.60334V25.334H10.1771ZM7.8908 9.99654C9.48575 9.99654 10.4785 8.96036 10.4785 7.66548C10.4488 6.3414 9.48581 5.33398 7.92107 5.33398C6.35658 5.33398 5.3335 6.34142 5.3335 7.66548C5.3335 8.96042 6.32603 9.99654 7.86095 9.99654H7.89066H7.8908ZM12.7086 25.334H17.2824V17.7983C17.2824 17.395 17.3121 16.9921 17.4329 16.7038C17.7635 15.898 18.5161 15.0635 19.7795 15.0635C21.4346 15.0635 22.0967 16.3009 22.0967 18.1149V25.3339H26.6701V17.5966C26.6701 13.4518 24.4137 11.5232 21.4045 11.5232C18.9371 11.5232 17.8538 12.8757 17.2519 13.7968H17.2825V11.8397H12.7087C12.7688 13.1059 12.7087 25.3337 12.7087 25.3337L12.7086 25.334Z" fill="white"/>
</svg>