<svg xmlns="http://www.w3.org/2000/svg" width="28" height="28" viewBox="0 0 28 28" fill="none">
<path d="M5.54316 0.711667L20.8545 9.51533L17.5727 12.7972L5.54316 0.711667ZM2.37099 0L16.4258 14L2.37216 28C1.65699 27.6838 1.16699 26.9803 1.16699 26.1625C1.16699 26.1357 1.16699 26.1088 1.16816 26.0832V26.0867V1.9145C1.16699 1.89233 1.16699 1.8655 1.16699 1.83867C1.16699 1.02083 1.65699 0.317333 2.35933 0.00583333L2.37216 0.00116667L2.37099 0ZM25.6133 12.3597C26.0963 12.7178 26.4055 13.2872 26.4055 13.9277C26.4055 13.9533 26.4055 13.9778 26.4043 14.0035V14C26.409 14.0502 26.4125 14.1097 26.4125 14.1692C26.4125 14.7712 26.1208 15.3055 25.6705 15.6368L25.6658 15.6403L22.384 17.4988L18.8303 14L22.3852 10.4452L25.6133 12.3597ZM5.54316 27.2883L17.5738 15.2028L20.8557 18.4847L5.54316 27.2883Z" fill="black"/>
</svg>