<svg xmlns="http://www.w3.org/2000/svg" width="32" height="32" viewBox="0 0 32 32" fill="none">
<rect width="32" height="32" rx="8" fill="#2D2D2D"/>
<path d="M28 8.93986C27.1013 9.31916 26.148 9.56813 25.1719 9.67849C26.1887 9.09795 26.9693 8.17864 27.3369 7.08329C26.3704 7.6297 25.3129 8.01468 24.2103 8.2216C23.312 7.30997 22.0324 6.74023 20.6162 6.74023C17.8968 6.74023 15.6921 8.84055 15.6921 11.431C15.6921 11.7987 15.7357 12.1567 15.8196 12.5001C11.7274 12.3044 8.09931 10.4369 5.67072 7.5989C5.24697 8.29171 5.00416 9.09759 5.00416 9.95715C5.00416 11.5846 5.8735 13.0204 7.19462 13.8616C6.4127 13.8383 5.64798 13.6371 4.96431 13.2748C4.96403 13.2945 4.96403 13.3141 4.96403 13.3339C4.96403 15.6066 6.66128 17.5026 8.91372 17.9335C8.18864 18.1214 7.42809 18.1489 6.69016 18.0139C7.31669 19.8775 9.13516 21.2337 11.2897 21.2716C9.60456 22.5297 7.48141 23.2797 5.17459 23.2797C4.77709 23.2797 4.38522 23.2575 4 23.2141C6.17903 24.5451 8.76719 25.3217 11.5478 25.3217C20.6047 25.3217 25.5573 18.1738 25.5573 11.975C25.5573 11.7716 25.5526 11.5693 25.543 11.3681C26.507 10.7043 27.339 9.88196 28 8.93986Z" fill="white"/>
</svg>